
<svg width="600" height="400" viewBox="0 0 600 400" fill="none" xmlns="http://www.w3.org/2000/svg">
  <rect x="100" y="50" width="400" height="300" rx="8" fill="#1A1A1A"/>
  <rect x="120" y="80" width="360" height="240" rx="4" fill="#121212"/>
  
  <!-- Code lines -->
  <rect x="140" y="100" width="120" height="10" rx="2" fill="#8B5CF6" opacity="0.7"/>
  <rect x="140" y="120" width="180" height="10" rx="2" fill="#FFFFFF" opacity="0.5"/>
  <rect x="140" y="140" width="160" height="10" rx="2" fill="#FFFFFF" opacity="0.5"/>
  <rect x="160" y="160" width="200" height="10" rx="2" fill="#0EA5E9" opacity="0.7"/>
  <rect x="160" y="180" width="150" height="10" rx="2" fill="#FFFFFF" opacity="0.5"/>
  <rect x="140" y="200" width="140" height="10" rx="2" fill="#10B981" opacity="0.7"/>
  <rect x="140" y="220" width="210" height="10" rx="2" fill="#FFFFFF" opacity="0.5"/>
  <rect x="160" y="240" width="170" height="10" rx="2" fill="#8B5CF6" opacity="0.7"/>
  <rect x="160" y="260" width="130" height="10" rx="2" fill="#FFFFFF" opacity="0.5"/>
  <rect x="140" y="280" width="180" height="10" rx="2" fill="#0EA5E9" opacity="0.7"/>
  
  <!-- Brackets and symbols -->
  <text x="130" y="108" fill="#FFFFFF" font-family="monospace" font-size="14">{</text>
  <text x="330" y="108" fill="#FFFFFF" font-family="monospace" font-size="14">}</text>
  <text x="150" y="168" fill="#FFFFFF" font-family="monospace" font-size="14">()</text>
  <text x="150" y="208" fill="#FFFFFF" font-family="monospace" font-size="14">=></text>
  <text x="150" y="248" fill="#FFFFFF" font-family="monospace" font-size="14">[]</text>
  <text x="130" y="288" fill="#FFFFFF" font-family="monospace" font-size="14">{</text>
  <text x="330" y="288" fill="#FFFFFF" font-family="monospace" font-size="14">}</text>
</svg>
